<svg width="32" height="32" viewBox="0 0 32 32" fill="none" xmlns="http://www.w3.org/2000/svg">
<g clip-path="url(#clip0_2466_1527)">
<path fill-rule="evenodd" clip-rule="evenodd" d="M32 16C31.8944 21.7438 31.4019 26.3266 28.8158 28.8158C26.2298 31.3051 21.779 31.8944 16 32C10.2562 31.8944 5.67345 31.4019 3.18417 28.8158C0.694887 26.2298 0.105553 21.779 0 16C0.105553 10.2562 0.598131 5.67345 3.18417 3.18417C5.7702 0.694887 10.221 0.105553 16 0C21.7438 0.105553 26.3266 0.598131 28.8158 3.18417C31.3051 5.7702 31.8944 10.2562 32 16Z" fill="#151515"/>
</g>
<path fill-rule="evenodd" clip-rule="evenodd" d="M14.7083 8.48428C15.6308 7.5993 16.8718 7.11035 18.1562 7.11035H20.742C21.0693 7.11035 21.3346 7.388 21.3346 7.73051V11.038C21.3346 11.3805 21.0693 11.6582 20.742 11.6582H18.1562C18.0689 11.6582 17.9945 11.6919 17.9471 11.7373C17.9015 11.7811 17.8868 11.8283 17.8868 11.8649V13.7253H20.742C20.9267 13.7253 21.1009 13.8155 21.213 13.9691C21.3251 14.1227 21.3623 14.3222 21.3137 14.5087L20.4518 17.8162C20.3815 18.086 20.1473 18.2731 19.8801 18.2731H17.8868V24.268C17.8868 24.6105 17.6215 24.8881 17.2942 24.8881H13.8464C13.5191 24.8881 13.2538 24.6105 13.2538 24.268V18.2731H11.2606C10.9333 18.2731 10.668 17.9955 10.668 17.653V14.3455C10.668 14.003 10.9333 13.7253 11.2606 13.7253H13.2538V11.8649C13.2538 10.5856 13.784 9.37093 14.7083 8.48428ZM18.1562 8.35066C17.1545 8.35066 16.2031 8.73289 15.5091 9.39858C14.8169 10.0626 14.439 10.9511 14.439 11.8649V14.3455C14.439 14.688 14.1737 14.9656 13.8464 14.9656H11.8532V17.0328H13.8464C14.1737 17.0328 14.439 17.3105 14.439 17.653V23.6478H16.7016V17.653C16.7016 17.3105 16.9669 17.0328 17.2942 17.0328H19.4275L19.9662 14.9656H17.2942C16.9669 14.9656 16.7016 14.688 16.7016 14.3455V11.8649C16.7016 11.4628 16.8686 11.0894 17.1463 10.823C17.4222 10.5583 17.7862 10.4178 18.1562 10.4178H20.1494V8.35066H18.1562Z" fill="white"/>
<defs>
<clipPath id="clip0_2466_1527">
<rect width="32" height="32" fill="white"/>
</clipPath>
</defs>
</svg>
