<svg width="32" height="32" viewBox="0 0 32 32" fill="none" xmlns="http://www.w3.org/2000/svg">
<g clip-path="url(#clip0_2466_1526)">
<path fill-rule="evenodd" clip-rule="evenodd" d="M32 16C31.8944 21.7438 31.4019 26.3266 28.8158 28.8158C26.2298 31.3051 21.779 31.8944 16 32C10.2562 31.8944 5.67345 31.4019 3.18417 28.8158C0.694887 26.2298 0.105553 21.779 0 16C0.105553 10.2562 0.598131 5.67345 3.18417 3.18417C5.7702 0.694887 10.221 0.105553 16 0C21.7438 0.105553 26.3266 0.598131 28.8158 3.18417C31.3051 5.7702 31.8944 10.2562 32 16Z" fill="#151515"/>
</g>
<path fill-rule="evenodd" clip-rule="evenodd" d="M11.8658 8.35066C9.925 8.35066 8.35164 9.92403 8.35164 11.8649V20.1336C8.35164 22.0745 9.925 23.6478 11.8658 23.6478H20.1346C22.0754 23.6478 23.6488 22.0745 23.6488 20.1336V11.8649C23.6488 9.92403 22.0754 8.35066 20.1346 8.35066H11.8658ZM7.11133 11.8649C7.11133 9.23902 9.24 7.11035 11.8658 7.11035H20.1346C22.7604 7.11035 24.8891 9.23902 24.8891 11.8649V20.1336C24.8891 22.7595 22.7604 24.8881 20.1346 24.8881H11.8658C9.24 24.8881 7.11133 22.7595 7.11133 20.1336V11.8649ZM19.9279 11.4514C19.9279 11.1089 20.2055 10.8313 20.548 10.8313H20.5563C20.8988 10.8313 21.1764 11.1089 21.1764 11.4514C21.1764 11.7939 20.8988 12.0716 20.5563 12.0716H20.548C20.2055 12.0716 19.9279 11.7939 19.9279 11.4514ZM16.4302 13.3052C15.871 13.2223 15.3 13.3178 14.7983 13.5781C14.2966 13.8385 13.8897 14.2504 13.6356 14.7553C13.3814 15.2602 13.293 15.8323 13.3828 16.3904C13.4726 16.9485 13.7361 17.464 14.1358 17.8637C14.5354 18.2634 15.051 18.5269 15.6091 18.6167C16.1671 18.7065 16.7393 18.618 17.2442 18.3639C17.7491 18.1098 18.161 17.7029 18.4213 17.2012C18.6817 16.6994 18.7772 16.1284 18.6943 15.5693C18.6097 14.9989 18.3439 14.4709 17.9362 14.0632C17.5285 13.6555 17.0005 13.3898 16.4302 13.3052ZM14.227 12.4772C14.9603 12.0967 15.7949 11.9571 16.6121 12.0783C17.4457 12.2019 18.2174 12.5903 18.8133 13.1862C19.4091 13.7821 19.7975 14.5538 19.9212 15.3873C20.0423 16.2045 19.9028 17.0391 19.5223 17.7724C19.1418 18.5057 18.5397 19.1004 17.8018 19.4718C17.0639 19.8432 16.2276 19.9725 15.412 19.8412C14.5964 19.71 13.8429 19.3249 13.2587 18.7407C12.6746 18.1566 12.2895 17.4031 12.1582 16.5874C12.027 15.7718 12.1563 14.9356 12.5277 14.1976C12.8991 13.4597 13.4937 12.8577 14.227 12.4772Z" fill="white"/>
<defs>
<clipPath id="clip0_2466_1526">
<rect width="32" height="32" fill="white"/>
</clipPath>
</defs>
</svg>
