<svg width="32" height="32" viewBox="0 0 32 32" fill="none" xmlns="http://www.w3.org/2000/svg">
<g clip-path="url(#clip0_2466_1520)">
<path fill-rule="evenodd" clip-rule="evenodd" d="M32 16C31.8944 21.7438 31.4019 26.3266 28.8158 28.8158C26.2298 31.3051 21.779 31.8944 16 32C10.2562 31.8944 5.67345 31.4019 3.18417 28.8158C0.694887 26.2298 0.105553 21.779 0 16C0.105553 10.2562 0.598131 5.67345 3.18417 3.18417C5.7702 0.694887 10.221 0.105553 16 0C21.7438 0.105553 26.3266 0.598131 28.8158 3.18417C31.3051 5.7702 31.8944 10.2562 32 16Z" fill="#151515"/>
</g>
<path fill-rule="evenodd" clip-rule="evenodd" d="M9.38523 8.35066C8.84398 8.35066 8.35164 8.82203 8.35164 9.47129C8.35164 10.1206 8.84398 10.5919 9.38523 10.5919C9.92648 10.5919 10.4188 10.1206 10.4188 9.47129C10.4188 8.82203 9.92648 8.35066 9.38523 8.35066ZM7.11133 9.47129C7.11133 8.19774 8.0998 7.11035 9.38523 7.11035C10.6707 7.11035 11.6591 8.19774 11.6591 9.47129C11.6591 10.7448 10.6707 11.8322 9.38523 11.8322C8.0998 11.8322 7.11133 10.7448 7.11133 9.47129ZM19.3077 13.573C18.1669 13.573 17.066 14.0497 16.2492 14.9096C15.4313 15.7705 14.9666 16.9447 14.9666 18.1752V23.6478H17.0338V18.1752C17.0338 17.559 17.2661 16.9621 17.6887 16.5172C18.1124 16.0712 18.6941 15.8143 19.3077 15.8143C19.9213 15.8143 20.503 16.0712 20.9267 16.5172C21.3494 16.9621 21.5816 17.559 21.5816 18.1752V23.6478H23.6488V18.1752C23.6488 16.9447 23.1841 15.7705 22.3662 14.9096C21.5494 14.0497 20.4485 13.573 19.3077 13.573ZM15.35 14.0553C16.3939 12.9564 17.8169 12.3327 19.3077 12.3327C20.7985 12.3327 22.2215 12.9564 23.2654 14.0553C24.3084 15.1532 24.8891 16.6357 24.8891 18.1752V24.268C24.8891 24.6105 24.6115 24.8881 24.2689 24.8881H20.9615C20.619 24.8881 20.3413 24.6105 20.3413 24.268V18.1752C20.3413 17.868 20.2251 17.5794 20.0275 17.3714C19.8309 17.1645 19.5713 17.0546 19.3077 17.0546C19.0441 17.0546 18.7845 17.1645 18.5879 17.3714C18.3903 17.5794 18.2741 17.868 18.2741 18.1752V24.268C18.2741 24.6105 17.9965 24.8881 17.654 24.8881H14.3465C14.004 24.8881 13.7263 24.6105 13.7263 24.268V18.1752C13.7263 16.6357 14.307 15.1532 15.35 14.0553ZM7.11133 13.8233C7.11133 13.4808 7.38898 13.2031 7.73148 13.2031H11.039C11.3815 13.2031 11.6591 13.4808 11.6591 13.8233V24.268C11.6591 24.6105 11.3815 24.8881 11.039 24.8881H7.73148C7.38898 24.8881 7.11133 24.6105 7.11133 24.268V13.8233ZM8.35164 14.4434V23.6478H10.4188V14.4434H8.35164Z" fill="white"/>
<defs>
<clipPath id="clip0_2466_1520">
<rect width="32" height="32" fill="white"/>
</clipPath>
</defs>
</svg>
