<svg width="32" height="32" viewBox="0 0 32 32" fill="none" xmlns="http://www.w3.org/2000/svg">
<g clip-path="url(#clip0_2466_1521)">
<path fill-rule="evenodd" clip-rule="evenodd" d="M32 16C31.8944 21.7438 31.4019 26.3266 28.8158 28.8158C26.2298 31.3051 21.779 31.8944 16 32C10.2562 31.8944 5.67345 31.4019 3.18417 28.8158C0.694887 26.2298 0.105553 21.779 0 16C0.105553 10.2562 0.598131 5.67345 3.18417 3.18417C5.7702 0.694887 10.221 0.105553 16 0C21.7438 0.105553 26.3266 0.598131 28.8158 3.18417C31.3051 5.7702 31.8944 10.2562 32 16Z" fill="#151515"/>
</g>
<path d="M20.6645 7.69141H23.3912L17.4356 14.4964L24.4413 23.7578H18.9575L14.6593 18.1421L9.74646 23.7578H7.01529L13.3841 16.4774L6.66797 7.69141H12.291L16.1723 12.8242L20.6645 7.69141ZM19.7069 22.1278H21.2169L11.4682 9.23621H9.84643L19.7069 22.1278Z" fill="white"/>
<defs>
<clipPath id="clip0_2466_1521">
<rect width="32" height="32" fill="white"/>
</clipPath>
</defs>
</svg>
